<?xml version="1.0" standalone="no"?>
<!DOCTYPE svg PUBLIC "-//W3C//DTD SVG 20010904//EN"
 "http://www.w3.org/TR/2001/REC-SVG-20010904/DTD/svg10.dtd">
<svg version="1.0" xmlns="http://www.w3.org/2000/svg"
 width="64.000000pt" height="64.000000pt" viewBox="0 0 64.000000 64.000000"
 preserveAspectRatio="xMidYMid meet">

<g transform="translate(0.000000,64.000000) scale(0.100000,-0.100000)"
fill="#000000" stroke="none">
<path d="M150 465 c-7 -8 -21 -15 -31 -15 -10 0 -21 -5 -24 -11 -4 -5 -18 -14
-31 -19 -18 -7 -24 -17 -24 -40 0 -23 -4 -30 -20 -30 -16 0 -20 -7 -20 -30 0
-23 4 -30 20 -30 16 0 20 -7 20 -30 0 -22 6 -33 23 -40 12 -6 30 -14 40 -20 9
-5 25 -15 35 -20 59 -34 76 -23 80 54 l3 56 99 0 99 0 3 -56 c3 -64 24 -89 56
-66 9 6 24 15 32 18 8 3 22 10 30 15 8 5 25 13 38 19 16 7 22 18 22 40 0 23 4
30 20 30 16 0 20 7 20 30 0 23 -4 30 -20 30 -16 0 -20 7 -20 30 0 22 -6 33
-22 40 -13 6 -31 14 -40 20 -10 5 -26 15 -35 20 -60 34 -77 23 -81 -54 l-3
-56 -79 0 c-47 0 -80 -4 -80 -10 0 -6 33 -10 80 -10 47 0 80 -4 80 -10 0 -6
-40 -10 -100 -10 -91 0 -121 8 -87 24 10 5 10 7 0 12 -8 3 -13 26 -13 58 0 29
-5 57 -12 64 -16 16 -43 15 -58 -3z m45 -146 c0 -112 -2 -134 -15 -134 -12 0
-16 15 -18 68 -3 79 -20 90 -24 15 -2 -39 -7 -53 -18 -53 -12 0 -15 18 -15
104 0 77 3 105 13 109 7 2 16 -5 19 -17 8 -31 23 -26 23 7 0 32 8 44 24 39 7
-2 11 -52 11 -138z m283 43 c1 -51 7 -92 12 -92 5 0 10 35 12 78 2 60 6 77 18
77 12 0 15 -18 15 -104 0 -77 -3 -105 -13 -109 -7 -2 -16 5 -19 17 -8 31 -21
25 -25 -11 -2 -21 -8 -33 -18 -33 -12 0 -15 22 -18 124 -3 132 0 155 21 149 8
-3 13 -34 15 -96z m-398 -42 c0 -47 -4 -80 -10 -80 -6 0 -10 33 -10 80 0 47 4
80 10 80 6 0 10 -33 10 -80z m500 0 c0 -47 -4 -80 -10 -80 -6 0 -10 33 -10 80
0 47 4 80 10 80 6 0 10 -33 10 -80z m-540 0 c0 -5 -4 -10 -10 -10 -5 0 -10 5
-10 10 0 6 5 10 10 10 6 0 10 -4 10 -10z m580 0 c0 -5 -4 -10 -10 -10 -5 0
-10 5 -10 10 0 6 5 10 10 10 6 0 10 -4 10 -10z"/>
<path d="M140 355 c0 -8 5 -15 10 -15 6 0 10 7 10 15 0 8 -4 15 -10 15 -5 0
-10 -7 -10 -15z"/>
</g>
</svg>
