<?xml version="1.0" standalone="no"?>
<!DOCTYPE svg PUBLIC "-//W3C//DTD SVG 20010904//EN"
 "http://www.w3.org/TR/2001/REC-SVG-20010904/DTD/svg10.dtd">
<svg version="1.0" xmlns="http://www.w3.org/2000/svg"
 width="50.000000pt" height="50.000000pt" viewBox="0 0 50.000000 50.000000"
 preserveAspectRatio="xMidYMid meet">

<g transform="translate(0.000000,50.000000) scale(0.100000,-0.100000)"
fill="#000000" stroke="none">
<path d="M103 391 c-3 -12 -15 -21 -32 -23 -22 -3 -26 -8 -29 -39 -2 -27 -9
-38 -23 -42 -27 -7 -27 -67 0 -74 14 -4 21 -15 23 -42 3 -31 7 -36 29 -39 17
-2 29 -11 32 -23 5 -17 12 -20 44 -17 l38 3 3 58 3 57 59 0 59 0 3 -57 3 -58
38 -3 c32 -3 39 0 44 17 3 12 15 21 32 23 22 3 26 8 29 39 2 27 9 38 23 42 27
7 27 67 0 74 -14 4 -21 15 -23 42 -3 31 -7 36 -29 39 -17 2 -29 11 -32 23 -5
17 -12 20 -44 17 l-38 -3 -3 -57 -3 -58 -59 0 -59 0 -3 58 -3 57 -38 3 c-32 3
-39 0 -44 -17z m67 -141 l0 -140 -25 0 -25 0 0 140 0 140 25 0 25 0 0 -140z
m210 0 l0 -140 -25 0 -25 0 0 140 0 140 25 0 25 0 0 -140z m-280 0 c0 -93 -1
-100 -20 -100 -19 0 -20 7 -20 100 0 93 1 100 20 100 19 0 20 -7 20 -100z
m340 0 c0 -93 -1 -100 -20 -100 -19 0 -20 7 -20 100 0 93 1 100 20 100 19 0
20 -7 20 -100z m-400 0 c0 -11 -4 -20 -10 -20 -5 0 -10 9 -10 20 0 11 5 20 10
20 6 0 10 -9 10 -20z m270 0 c0 -18 -7 -20 -60 -20 -53 0 -60 2 -60 20 0 18 7
20 60 20 53 0 60 -2 60 -20z m170 0 c0 -11 -4 -20 -10 -20 -5 0 -10 9 -10 20
0 11 5 20 10 20 6 0 10 -9 10 -20z"/>
</g>
</svg>
