<svg width="177" height="39" viewBox="0 0 177 39" fill="none" xmlns="http://www.w3.org/2000/svg">
<path d="M3 23.5L16.4771 11.2928C18.8859 9.11102 22.7032 9.77092 24.2397 12.6347L30.1561 23.6618C31.8037 26.7327 36.0085 27.2184 38.3129 24.6041L51.9784 9.1005C54.2085 6.57042 58.2526 6.92876 60.0031 9.81157L70.1793 26.5703C72.1807 29.8663 77.0021 29.752 78.845 26.3648L85.3206 14.4633C87.1426 11.1147 91.8915 10.9551 93.9342 14.1738L99.3977 22.7826C101.691 26.3957 107.168 25.6462 108.406 21.5499L108.476 21.3168C109.478 17.9999 113.469 16.6835 116.248 18.7527L116.81 19.1709C118.649 20.54 121.183 20.483 122.959 19.0327L130.624 12.7711C132.814 10.9826 136.05 11.3638 137.764 13.6122L143.965 21.7462C146.184 24.6579 150.678 24.2751 152.373 21.0299L154.986 16.0265C155.503 15.0374 156.336 14.2495 157.352 13.7883L159.982 12.5948C162.521 11.4426 165.512 12.5899 166.629 15.1446L174 32" stroke="#F88863" stroke-linecap="round"/>
<rect width="177" height="39" rx="5" fill="#F8C6B5" fill-opacity="0.5"/>
<line x1="28.5" x2="28.5" y2="39" stroke="black" stroke-opacity="0.1"/>
<line x1="148.5" x2="148.5" y2="39" stroke="black" stroke-opacity="0.1"/>
<line x1="108.5" x2="108.5" y2="39" stroke="black" stroke-opacity="0.1"/>
<line x1="68.5" x2="68.5" y2="39" stroke="black" stroke-opacity="0.1"/>
<line y1="20.5" x2="177" y2="20.5" stroke="black" stroke-opacity="0.1"/>
</svg>
