<svg width="140" height="41" viewBox="0 0 140 41" fill="none" xmlns="http://www.w3.org/2000/svg">
<rect width="140" height="41" rx="10" fill="#F8C6B5"/>
<path d="M41.3965 27V12.9961H42.6562V25.7988H48.0176V27H41.3965ZM56.2988 24.2559C56.2988 24.6595 56.2207 25.0404 56.0645 25.3984C55.9147 25.7565 55.7064 26.069 55.4395 26.3359C55.1725 26.6029 54.86 26.8145 54.502 26.9707C54.1439 27.1204 53.763 27.1953 53.3594 27.1953H52.5586C52.1549 27.1953 51.7741 27.1204 51.416 26.9707C51.0579 26.8145 50.7454 26.6029 50.4785 26.3359C50.2116 26.069 50 25.7565 49.8438 25.3984C49.694 25.0404 49.6191 24.6595 49.6191 24.2559V19.7441C49.6191 19.3405 49.694 18.9596 49.8438 18.6016C50 18.2435 50.2116 17.931 50.4785 17.6641C50.7454 17.3971 51.0579 17.1888 51.416 17.0391C51.7741 16.8828 52.1549 16.8047 52.5586 16.8047H53.3594C53.763 16.8047 54.1439 16.8828 54.502 17.0391C54.86 17.1888 55.1725 17.3971 55.4395 17.6641C55.7064 17.931 55.9147 18.2435 56.0645 18.6016C56.2207 18.9596 56.2988 19.3405 56.2988 19.7441V24.2559ZM55.0977 19.6758C55.0977 19.4349 55.0521 19.2103 54.9609 19.002C54.8698 18.7871 54.7461 18.6016 54.5898 18.4453C54.4336 18.2891 54.248 18.1654 54.0332 18.0742C53.8249 17.9831 53.6003 17.9375 53.3594 17.9375H52.5586C52.3177 17.9375 52.0898 17.9831 51.875 18.0742C51.6667 18.1654 51.4844 18.2891 51.3281 18.4453C51.1719 18.6016 51.0482 18.7871 50.957 19.002C50.8659 19.2103 50.8203 19.4349 50.8203 19.6758V24.3242C50.8203 24.5651 50.8659 24.793 50.957 25.0078C51.0482 25.2161 51.1719 25.3984 51.3281 25.5547C51.4844 25.7109 51.6667 25.8346 51.875 25.9258C52.0898 26.0169 52.3177 26.0625 52.5586 26.0625H53.3594C53.6003 26.0625 53.8249 26.0169 54.0332 25.9258C54.248 25.8346 54.4336 25.7109 54.5898 25.5547C54.7461 25.3984 54.8698 25.2161 54.9609 25.0078C55.0521 24.793 55.0977 24.5651 55.0977 24.3242V19.6758ZM65.4785 28.2598C65.4785 28.6634 65.4004 29.0345 65.2441 29.373C65.0944 29.7116 64.8861 30.0013 64.6191 30.2422C64.3522 30.4831 64.0397 30.6686 63.6816 30.7988C63.3236 30.9355 62.9427 31.0039 62.5391 31.0039H62.041C61.6374 31.0039 61.2565 30.9355 60.8984 30.7988C60.5404 30.6686 60.2279 30.4831 59.9609 30.2422C59.694 30.0013 59.4824 29.7116 59.3262 29.373C59.1764 29.0345 59.1016 28.6634 59.1016 28.2598V28.2207C59.1016 27.8301 59.1732 27.472 59.3164 27.1465C59.4596 26.821 59.6549 26.5378 59.9023 26.2969C59.5898 26.1081 59.3392 25.8542 59.1504 25.5352C58.9681 25.2096 58.877 24.8516 58.877 24.4609C58.877 24.1094 58.9518 23.7839 59.1016 23.4844C59.2513 23.1784 59.4564 22.931 59.7168 22.7422C59.4043 22.4688 59.1569 22.14 58.9746 21.7559C58.7923 21.3717 58.7012 20.9518 58.7012 20.4961V19.7441C58.7012 19.3405 58.776 18.9596 58.9258 18.6016C59.082 18.2435 59.2936 17.931 59.5605 17.6641C59.8275 17.3971 60.14 17.1888 60.498 17.0391C60.8561 16.8828 61.237 16.8047 61.6406 16.8047H62.1387C62.627 16.8047 63.0762 16.9154 63.4863 17.1367C63.903 17.3516 64.248 17.6445 64.5215 18.0156L65.1758 17H65.5762V20.4961C65.5762 20.8997 65.498 21.2806 65.3418 21.6387C65.1921 21.9967 64.9837 22.3092 64.7168 22.5762C64.4499 22.8431 64.1374 23.0547 63.7793 23.2109C63.4212 23.3607 63.0404 23.4355 62.6367 23.4355H60.8984C60.7617 23.4355 60.6315 23.4648 60.5078 23.5234C60.3841 23.5755 60.2734 23.6471 60.1758 23.7383C60.0846 23.8294 60.013 23.9401 59.9609 24.0703C59.9089 24.194 59.8828 24.3242 59.8828 24.4609C59.8828 24.5977 59.9089 24.7279 59.9609 24.8516C60.013 24.9753 60.0846 25.0859 60.1758 25.1836C60.2734 25.2747 60.3841 25.3464 60.5078 25.3984C60.6315 25.4505 60.7617 25.4766 60.8984 25.4766H62.5391C62.9427 25.4766 63.3236 25.5449 63.6816 25.6816C64.0397 25.8118 64.3522 25.9974 64.6191 26.2383C64.8861 26.4792 65.0944 26.7689 65.2441 27.1074C65.4004 27.446 65.4785 27.8171 65.4785 28.2207V28.2598ZM64.3848 19.6758C64.3848 19.4349 64.3392 19.2103 64.248 19.002C64.1569 18.7871 64.0299 18.6016 63.8672 18.4453C63.7109 18.2891 63.5254 18.1654 63.3105 18.0742C63.1022 17.9831 62.8776 17.9375 62.6367 17.9375H61.6406C61.3997 17.9375 61.1719 17.9831 60.957 18.0742C60.7487 18.1654 60.5664 18.2891 60.4102 18.4453C60.2539 18.6016 60.1302 18.7871 60.0391 19.002C59.9479 19.2103 59.9023 19.4349 59.9023 19.6758V20.5645C59.9023 20.8053 59.9479 21.0332 60.0391 21.248C60.1302 21.4564 60.2539 21.6387 60.4102 21.7949C60.5664 21.9512 60.7487 22.0749 60.957 22.166C61.1719 22.2572 61.3997 22.3027 61.6406 22.3027H62.6367C62.8776 22.3027 63.1022 22.2572 63.3105 22.166C63.5254 22.0749 63.7109 21.9512 63.8672 21.7949C64.0299 21.6387 64.1569 21.4564 64.248 21.248C64.3392 21.0332 64.3848 20.8053 64.3848 20.5645V19.6758ZM64.3359 28.1621C64.3359 27.9212 64.2904 27.7031 64.1992 27.5078C64.1081 27.319 63.9844 27.1595 63.8281 27.0293C63.6719 26.8991 63.4863 26.7982 63.2715 26.7266C63.0632 26.6549 62.8385 26.6191 62.5977 26.6191H61.9824C61.7415 26.6191 61.5137 26.6549 61.2988 26.7266C61.0905 26.7982 60.9082 26.8991 60.752 27.0293C60.5957 27.1595 60.472 27.319 60.3809 27.5078C60.2897 27.7031 60.2441 27.9212 60.2441 28.1621V28.3184C60.2441 28.5592 60.2897 28.7741 60.3809 28.9629C60.472 29.1517 60.5957 29.3112 60.752 29.4414C60.9082 29.5781 61.0905 29.6823 61.2988 29.7539C61.5137 29.8255 61.7415 29.8613 61.9824 29.8613H62.5977C62.8385 29.8613 63.0632 29.8255 63.2715 29.7539C63.4863 29.6823 63.6719 29.5781 63.8281 29.4414C63.9844 29.3112 64.1081 29.1517 64.1992 28.9629C64.2904 28.7741 64.3359 28.5592 64.3359 28.3184V28.1621ZM78.0469 23.7383H73.6133L72.6953 27H71.3867L75.4883 12.9961H76.1523L80.2734 27H78.9746L78.0469 23.7383ZM73.9551 22.5371H77.7148L75.8691 16.082L75.8301 15.5645L75.791 16.082L73.9551 22.5371ZM88.3496 24.2559C88.3496 24.6595 88.2715 25.0404 88.1152 25.3984C87.9655 25.7565 87.7572 26.069 87.4902 26.3359C87.2233 26.6029 86.9108 26.8145 86.5527 26.9707C86.1947 27.1204 85.8138 27.1953 85.4102 27.1953H84.6094C84.2057 27.1953 83.8249 27.1204 83.4668 26.9707C83.1087 26.8145 82.7962 26.6029 82.5293 26.3359C82.2624 26.069 82.0508 25.7565 81.8945 25.3984C81.7448 25.0404 81.6699 24.6595 81.6699 24.2559V19.7441C81.6699 19.3405 81.7448 18.9596 81.8945 18.6016C82.0508 18.2435 82.2624 17.931 82.5293 17.6641C82.7962 17.3971 83.1087 17.1888 83.4668 17.0391C83.8249 16.8828 84.2057 16.8047 84.6094 16.8047H85.4102C85.8138 16.8047 86.1947 16.8828 86.5527 17.0391C86.9108 17.1888 87.2233 17.3971 87.4902 17.6641C87.7572 17.931 87.9655 18.2435 88.1152 18.6016C88.2715 18.9596 88.3496 19.3405 88.3496 19.7441V20.1445L87.1484 20.3398V19.6758C87.1484 19.4349 87.1029 19.2103 87.0117 19.002C86.9206 18.7871 86.7969 18.6016 86.6406 18.4453C86.4844 18.2891 86.2988 18.1654 86.084 18.0742C85.8757 17.9831 85.651 17.9375 85.4102 17.9375H84.6094C84.3685 17.9375 84.1406 17.9831 83.9258 18.0742C83.7174 18.1654 83.5352 18.2891 83.3789 18.4453C83.2227 18.6016 83.099 18.7871 83.0078 19.002C82.9167 19.2103 82.8711 19.4349 82.8711 19.6758V24.3242C82.8711 24.5651 82.9167 24.793 83.0078 25.0078C83.099 25.2161 83.2227 25.3984 83.3789 25.5547C83.5352 25.7109 83.7174 25.8346 83.9258 25.9258C84.1406 26.0169 84.3685 26.0625 84.6094 26.0625H85.4102C85.651 26.0625 85.8757 26.0169 86.084 25.9258C86.2988 25.8346 86.4844 25.7109 86.6406 25.5547C86.7969 25.3984 86.9206 25.2161 87.0117 25.0078C87.1029 24.793 87.1484 24.5651 87.1484 24.3242V23.6602L88.3496 23.8555V24.2559ZM94.3945 27C94.0299 27 93.6849 26.9316 93.3594 26.7949C93.0404 26.6582 92.7604 26.4694 92.5195 26.2285C92.2852 25.9876 92.0964 25.7077 91.9531 25.3887C91.8164 25.0697 91.748 24.7279 91.748 24.3633V18.1426H89.9512V17H91.748V14.5977L92.9492 14.4023V17H95.4883V18.1426H92.9492V24.4219C92.9492 24.6237 92.985 24.8125 93.0566 24.9883C93.1348 25.1576 93.2389 25.3073 93.3691 25.4375C93.4993 25.5677 93.6523 25.6719 93.8281 25.75C94.0039 25.8216 94.1927 25.8574 94.3945 25.8574H95.4883V27H94.3945ZM98.0078 14.5977V12.9961H99.4043V14.5977H98.0078ZM98.1055 27V17H99.3066V27H98.1055ZM105.254 27H104.658L101.113 17H102.314L104.922 24.5781L104.961 25.0957L105 24.5781L107.598 17H108.799L105.254 27ZM110.508 14.5977V12.9961H111.904V14.5977H110.508ZM110.605 27V17H111.807V27H110.605ZM118.262 27C117.897 27 117.552 26.9316 117.227 26.7949C116.908 26.6582 116.628 26.4694 116.387 26.2285C116.152 25.9876 115.964 25.7077 115.82 25.3887C115.684 25.0697 115.615 24.7279 115.615 24.3633V18.1426H113.818V17H115.615V14.5977L116.816 14.4023V17H119.355V18.1426H116.816V24.4219C116.816 24.6237 116.852 24.8125 116.924 24.9883C117.002 25.1576 117.106 25.3073 117.236 25.4375C117.367 25.5677 117.52 25.6719 117.695 25.75C117.871 25.8216 118.06 25.8574 118.262 25.8574H119.355V27H118.262ZM123.193 31.0039H122.031L123.809 26.1406L120.566 17H121.768L124.375 24.5781L124.414 25.0957L124.453 24.5781L127.051 17H128.252L123.193 31.0039Z" fill="#582C1F"/>
<rect x="9" y="8" width="24" height="24" rx="5" fill="#582C1F"/>
<path d="M17 28C16.45 28 15.9792 27.8042 15.5875 27.4125C15.1958 27.0208 15 26.55 15 26V23H18V20.75C17.4167 20.7167 16.8625 20.5875 16.3375 20.3625C15.8125 20.1375 15.3333 19.8 14.9 19.35V18.25H13.75L10.5 15C11.1 14.2333 11.8417 13.6917 12.725 13.375C13.6083 13.0583 14.5 12.9 15.4 12.9C15.85 12.9 16.2875 12.9333 16.7125 13C17.1375 13.0667 17.5667 13.1917 18 13.375V12H30V25C30 25.8333 29.7083 26.5417 29.125 27.125C28.5417 27.7083 27.8333 28 27 28H17ZM20 23H26V25C26 25.2833 26.0958 25.5208 26.2875 25.7125C26.4792 25.9042 26.7167 26 27 26C27.2833 26 27.5208 25.9042 27.7125 25.7125C27.9042 25.5208 28 25.2833 28 25V14H20V14.6L26 20.6V22H24.6L21.75 19.15L21.55 19.35C21.3167 19.5833 21.0708 19.7917 20.8125 19.975C20.5542 20.1583 20.2833 20.3 20 20.4V23ZM14.6 16.25H16.9V18.4C17.1 18.5333 17.3083 18.625 17.525 18.675C17.7417 18.725 17.9667 18.75 18.2 18.75C18.5833 18.75 18.9292 18.6917 19.2375 18.575C19.5458 18.4583 19.85 18.25 20.15 17.95L20.35 17.75L18.95 16.35C18.4667 15.8667 17.925 15.5042 17.325 15.2625C16.725 15.0208 16.0833 14.9 15.4 14.9C15.0667 14.9 14.75 14.925 14.45 14.975C14.15 15.025 13.85 15.1 13.55 15.2L14.6 16.25ZM24 25H17V26H24.15C24.1 25.85 24.0625 25.6917 24.0375 25.525C24.0125 25.3583 24 25.1833 24 25Z" fill="#FEEADC"/>
</svg>
