<svg width="140" height="41" viewBox="0 0 140 41" fill="none" xmlns="http://www.w3.org/2000/svg">
<rect width="140" height="41" rx="10" fill="#F8C6B5"/>
<path d="M55.2773 23.7578C55.2773 24.2331 55.1797 24.679 54.9844 25.0957C54.7956 25.5124 54.5384 25.877 54.2129 26.1895C53.8939 26.502 53.5195 26.7493 53.0898 26.9316C52.6667 27.1074 52.2174 27.1953 51.7422 27.1953H50.7363C50.2611 27.1953 49.8086 27.1074 49.3789 26.9316C48.9557 26.7493 48.5814 26.502 48.2559 26.1895C47.9368 25.877 47.6797 25.5124 47.4844 25.0957C47.2956 24.679 47.2012 24.2331 47.2012 23.7578V23.2012L48.4609 22.9961V23.7578C48.4609 24.0703 48.5228 24.3633 48.6465 24.6367C48.7767 24.9036 48.9492 25.1413 49.1641 25.3496C49.3789 25.5514 49.6263 25.7109 49.9062 25.8281C50.1927 25.9453 50.4922 26.0039 50.8047 26.0039H51.6836C51.9961 26.0039 52.2923 25.9453 52.5723 25.8281C52.8522 25.7109 53.0996 25.5514 53.3145 25.3496C53.5293 25.1413 53.6986 24.9036 53.8223 24.6367C53.9525 24.3633 54.0176 24.0703 54.0176 23.7578V23.3379C54.0176 22.8561 53.9232 22.4557 53.7344 22.1367C53.5456 21.8177 53.2949 21.5475 52.9824 21.3262C52.6699 21.0983 52.3151 20.9062 51.918 20.75C51.5273 20.5938 51.1237 20.4375 50.707 20.2812C50.2904 20.125 49.8835 19.9525 49.4863 19.7637C49.0957 19.5749 48.7441 19.3405 48.4316 19.0605C48.1191 18.7741 47.8685 18.4258 47.6797 18.0156C47.4909 17.6055 47.3965 17.1009 47.3965 16.502V16.2383C47.3965 15.763 47.4844 15.3171 47.6602 14.9004C47.8424 14.4837 48.0898 14.1191 48.4023 13.8066C48.7148 13.4941 49.0794 13.25 49.4961 13.0742C49.9193 12.8919 50.3685 12.8008 50.8438 12.8008H51.7422C52.2174 12.8008 52.6634 12.8919 53.0801 13.0742C53.4967 13.25 53.8613 13.4941 54.1738 13.8066C54.4863 14.1191 54.7305 14.4837 54.9062 14.9004C55.0885 15.3171 55.1797 15.763 55.1797 16.2383V16.5996L53.9199 16.8047V16.2383C53.9199 15.9258 53.8613 15.6361 53.7441 15.3691C53.627 15.0957 53.4674 14.8581 53.2656 14.6562C53.0638 14.4544 52.8262 14.2949 52.5527 14.1777C52.2858 14.0605 51.9961 14.002 51.6836 14.002H50.9023C50.5898 14.002 50.2969 14.0605 50.0234 14.1777C49.7565 14.2949 49.5189 14.4544 49.3105 14.6562C49.1087 14.8581 48.9492 15.0957 48.832 15.3691C48.7148 15.6361 48.6562 15.9258 48.6562 16.2383V16.502C48.6562 16.9512 48.7507 17.3288 48.9395 17.6348C49.1283 17.9408 49.3789 18.2044 49.6914 18.4258C50.0039 18.6406 50.3555 18.8294 50.7461 18.9922C51.1432 19.1484 51.5501 19.3112 51.9668 19.4805C52.3835 19.6432 52.7871 19.8255 53.1777 20.0273C53.5749 20.2227 53.9297 20.4668 54.2422 20.7598C54.5547 21.0462 54.8053 21.3978 54.9941 21.8145C55.1829 22.2311 55.2773 22.7389 55.2773 23.3379V23.7578ZM61.2344 27C60.8698 27 60.5247 26.9316 60.1992 26.7949C59.8802 26.6582 59.6003 26.4694 59.3594 26.2285C59.125 25.9876 58.9362 25.7077 58.793 25.3887C58.6562 25.0697 58.5879 24.7279 58.5879 24.3633V18.1426H56.791V17H58.5879V14.5977L59.7891 14.4023V17H62.3281V18.1426H59.7891V24.4219C59.7891 24.6237 59.8249 24.8125 59.8965 24.9883C59.9746 25.1576 60.0788 25.3073 60.209 25.4375C60.3392 25.5677 60.4922 25.6719 60.668 25.75C60.8438 25.8216 61.0326 25.8574 61.2344 25.8574H62.3281V27H61.2344ZM71.2246 24.2559C71.2246 24.6595 71.1465 25.0404 70.9902 25.3984C70.8405 25.7565 70.6322 26.069 70.3652 26.3359C70.0983 26.6029 69.7858 26.8145 69.4277 26.9707C69.0697 27.1204 68.6888 27.1953 68.2852 27.1953H67.4844C67.0807 27.1953 66.6999 27.1204 66.3418 26.9707C65.9837 26.8145 65.6712 26.6029 65.4043 26.3359C65.1374 26.069 64.9258 25.7565 64.7695 25.3984C64.6198 25.0404 64.5449 24.6595 64.5449 24.2559V19.7441C64.5449 19.3405 64.6198 18.9596 64.7695 18.6016C64.9258 18.2435 65.1374 17.931 65.4043 17.6641C65.6712 17.3971 65.9837 17.1888 66.3418 17.0391C66.6999 16.8828 67.0807 16.8047 67.4844 16.8047H68.2852C68.6888 16.8047 69.0697 16.8828 69.4277 17.0391C69.7858 17.1888 70.0983 17.3971 70.3652 17.6641C70.6322 17.931 70.8405 18.2435 70.9902 18.6016C71.1465 18.9596 71.2246 19.3405 71.2246 19.7441V22.0977H65.7461V24.3242C65.7461 24.5651 65.7917 24.793 65.8828 25.0078C65.974 25.2161 66.0977 25.3984 66.2539 25.5547C66.4102 25.7109 66.5924 25.8346 66.8008 25.9258C67.0156 26.0169 67.2435 26.0625 67.4844 26.0625H68.2852C68.526 26.0625 68.7507 26.0169 68.959 25.9258C69.1738 25.8346 69.3594 25.7109 69.5156 25.5547C69.6719 25.3984 69.7956 25.2161 69.8867 25.0078C69.9779 24.793 70.0234 24.5651 70.0234 24.3242V23.6602L71.2246 23.8555V24.2559ZM70.0234 19.6758C70.0234 19.4349 69.9779 19.2103 69.8867 19.002C69.7956 18.7871 69.6719 18.6016 69.5156 18.4453C69.3594 18.2891 69.1738 18.1654 68.959 18.0742C68.7507 17.9831 68.526 17.9375 68.2852 17.9375H67.4844C67.2435 17.9375 67.0156 17.9831 66.8008 18.0742C66.5924 18.1654 66.4102 18.2891 66.2539 18.4453C66.0977 18.6016 65.974 18.7871 65.8828 19.002C65.7917 19.2103 65.7461 19.4349 65.7461 19.6758V21.1602H70.0234V19.6758ZM80.3066 24.2559C80.3066 24.6595 80.2285 25.0404 80.0723 25.3984C79.9225 25.7565 79.7142 26.069 79.4473 26.3359C79.1803 26.6029 78.8678 26.8145 78.5098 26.9707C78.1517 27.1204 77.7708 27.1953 77.3672 27.1953H77.0645C76.6152 27.1953 76.1986 27.1042 75.8145 26.9219C75.4303 26.7396 75.1016 26.4857 74.8281 26.1602V31.0039H73.627V17H74.0273L74.6816 18.0156C74.9551 17.6445 75.2969 17.3516 75.707 17.1367C76.1237 16.9154 76.5762 16.8047 77.0645 16.8047H77.3672C77.7708 16.8047 78.1517 16.8828 78.5098 17.0391C78.8678 17.1888 79.1803 17.3971 79.4473 17.6641C79.7142 17.931 79.9225 18.2435 80.0723 18.6016C80.2285 18.9596 80.3066 19.3405 80.3066 19.7441V24.2559ZM79.1055 19.6758C79.1055 19.4349 79.0599 19.2103 78.9688 19.002C78.8776 18.7871 78.7539 18.6016 78.5977 18.4453C78.4414 18.2891 78.2559 18.1654 78.041 18.0742C77.8327 17.9831 77.6081 17.9375 77.3672 17.9375H76.5664C76.3255 17.9375 76.0977 17.9831 75.8828 18.0742C75.6745 18.1654 75.4922 18.2891 75.3359 18.4453C75.1797 18.6016 75.056 18.7871 74.9648 19.002C74.8737 19.2103 74.8281 19.4349 74.8281 19.6758V24.3242C74.8281 24.5651 74.8737 24.793 74.9648 25.0078C75.056 25.2161 75.1797 25.3984 75.3359 25.5547C75.4922 25.7109 75.6745 25.8346 75.8828 25.9258C76.0977 26.0169 76.3255 26.0625 76.5664 26.0625H77.3672C77.6081 26.0625 77.8327 26.0169 78.041 25.9258C78.2559 25.8346 78.4414 25.7109 78.5977 25.5547C78.7539 25.3984 78.8776 25.2161 78.9688 25.0078C79.0599 24.793 79.1055 24.5651 79.1055 24.3242V19.6758ZM90.7168 23.9238L90.7559 24.4414L90.7949 23.9238L93.9004 12.9961H95.1992L91.0781 27H90.4141L86.3125 12.9961H87.6211L90.7168 23.9238ZM96.8984 14.5977V12.9961H98.2949V14.5977H96.8984ZM96.9961 27V17H98.1973V27H96.9961ZM107.689 24.2559C107.689 24.6595 107.611 25.0404 107.455 25.3984C107.305 25.7565 107.097 26.069 106.83 26.3359C106.563 26.6029 106.251 26.8145 105.893 26.9707C105.535 27.1204 105.154 27.1953 104.75 27.1953H103.949C103.546 27.1953 103.165 27.1204 102.807 26.9707C102.449 26.8145 102.136 26.6029 101.869 26.3359C101.602 26.069 101.391 25.7565 101.234 25.3984C101.085 25.0404 101.01 24.6595 101.01 24.2559V19.7441C101.01 19.3405 101.085 18.9596 101.234 18.6016C101.391 18.2435 101.602 17.931 101.869 17.6641C102.136 17.3971 102.449 17.1888 102.807 17.0391C103.165 16.8828 103.546 16.8047 103.949 16.8047H104.75C105.154 16.8047 105.535 16.8828 105.893 17.0391C106.251 17.1888 106.563 17.3971 106.83 17.6641C107.097 17.931 107.305 18.2435 107.455 18.6016C107.611 18.9596 107.689 19.3405 107.689 19.7441V22.0977H102.211V24.3242C102.211 24.5651 102.257 24.793 102.348 25.0078C102.439 25.2161 102.562 25.3984 102.719 25.5547C102.875 25.7109 103.057 25.8346 103.266 25.9258C103.48 26.0169 103.708 26.0625 103.949 26.0625H104.75C104.991 26.0625 105.215 26.0169 105.424 25.9258C105.639 25.8346 105.824 25.7109 105.98 25.5547C106.137 25.3984 106.26 25.2161 106.352 25.0078C106.443 24.793 106.488 24.5651 106.488 24.3242V23.6602L107.689 23.8555V24.2559ZM106.488 19.6758C106.488 19.4349 106.443 19.2103 106.352 19.002C106.26 18.7871 106.137 18.6016 105.98 18.4453C105.824 18.2891 105.639 18.1654 105.424 18.0742C105.215 17.9831 104.991 17.9375 104.75 17.9375H103.949C103.708 17.9375 103.48 17.9831 103.266 18.0742C103.057 18.1654 102.875 18.2891 102.719 18.4453C102.562 18.6016 102.439 18.7871 102.348 19.002C102.257 19.2103 102.211 19.4349 102.211 19.6758V21.1602H106.488V19.6758ZM118.51 27H117.855L115.512 19.4609L115.473 18.9434L115.434 19.4609L113.09 27H112.426L109.086 17H110.307L112.689 24.5586L112.729 25.0762L112.768 24.5586L115.111 17H115.834L118.168 24.5586L118.207 25.0762L118.246 24.5586L120.629 17H121.85L118.51 27Z" fill="#582C1F"/>
<rect x="12" y="8" width="24" height="24" rx="5" fill="#582C1F"/>
<path d="M31.6 29L25.3 22.7C24.8 23.1 24.225 23.4167 23.575 23.65C22.925 23.8833 22.2333 24 21.5 24C19.6833 24 18.1458 23.3708 16.8875 22.1125C15.6292 20.8542 15 19.3167 15 17.5C15 15.6833 15.6292 14.1458 16.8875 12.8875C18.1458 11.6292 19.6833 11 21.5 11C23.3167 11 24.8542 11.6292 26.1125 12.8875C27.3708 14.1458 28 15.6833 28 17.5C28 18.2333 27.8833 18.925 27.65 19.575C27.4167 20.225 27.1 20.8 26.7 21.3L33 27.6L31.6 29ZM21.5 22C22.75 22 23.8125 21.5625 24.6875 20.6875C25.5625 19.8125 26 18.75 26 17.5C26 16.25 25.5625 15.1875 24.6875 14.3125C23.8125 13.4375 22.75 13 21.5 13C20.25 13 19.1875 13.4375 18.3125 14.3125C17.4375 15.1875 17 16.25 17 17.5C17 18.75 17.4375 19.8125 18.3125 20.6875C19.1875 21.5625 20.25 22 21.5 22Z" fill="#FEEADC"/>
</svg>
